<?xml version="1.0" encoding="utf-8"?>
<!-- Generator: Adobe Illustrator 25.0.1, SVG Export Plug-In . SVG Version: 6.00 Build 0)  -->
<svg version="1.1" id="Calque_1" xmlns="http://www.w3.org/2000/svg" xmlns:xlink="http://www.w3.org/1999/xlink" x="0px" y="0px"
	 viewBox="0 0 693 528" style="enable-background:new 0 0 693 528;" xml:space="preserve">
<style type="text/css">
	.st0{fill:#F2F2F2;}
	.st1{fill:#E6E6E6;}
	.st2{fill:#6C63FF;}
	.st3{fill:#3F3D56;}
	.st4{fill:#FFB6B6;}
	.st5{fill:#2F2E41;}
</style>
<path class="st0" d="M693,283.5v221.8c0,12.5-10.2,22.7-22.7,22.7H500.2l1.6-2L691,286L693,283.5z"/>
<path class="st1" d="M270.8,205.4H75.4c-3.3,0-6,2.7-6,6c0,3.3,2.7,6,6,6h195.4c3.3,0,6-2.7,6-6
	C276.8,208.1,274.1,205.4,270.8,205.4z"/>
<path class="st1" d="M136,171.5H75.4c-3.3,0-6,2.7-6,6c0,3.3,2.7,6,6,6H136c3.3,0,6-2.7,6-6C142,174.2,139.3,171.5,136,171.5
	L136,171.5z"/>
<path class="st1" d="M670.3,0H22.7C10.2,0,0,10.2,0,22.7v482.6C0,517.8,10.2,528,22.7,528h647.6c12.5,0,22.7-10.2,22.7-22.7V22.7
	C693,10.2,682.8,0,670.3,0z M691,505.3c0,11.4-9.3,20.7-20.7,20.7l0,0H22.7C11.3,526,2,516.7,2,505.3l0,0V157.7
	C2,71.7,71.7,2,157.7,2h512.6c11.4,0,20.7,9.3,20.7,20.7l0,0V505.3z"/>
<path class="st1" d="M629.9,87.3H63.2c-0.6,0-1-0.4-1-1s0.4-1,1-1h566.7c0.6,0,1,0.4,1,1S630.4,87.3,629.9,87.3z"/>
<ellipse class="st1" cx="91.5" cy="48.6" rx="8.5" ry="8.6"/>
<ellipse class="st1" cx="120.7" cy="48.6" rx="8.5" ry="8.6"/>
<ellipse class="st1" cx="149.9" cy="48.6" rx="8.5" ry="8.6"/>
<path class="st1" d="M183.3,55.4c-0.3,0-0.5-0.1-0.7-0.3l-5.7-5.8c-0.4-0.4-0.4-1,0-1.4l5.7-5.8c0.4-0.4,1-0.4,1.4,0
	c0.4,0.4,0.4,1,0,1.4c0,0,0,0,0,0l-5,5.1l5,5.1c0.4,0.4,0.4,1,0,1.4C183.8,55.3,183.5,55.4,183.3,55.4L183.3,55.4z"/>
<path class="st1" d="M192.8,55.4c-0.6,0-1-0.4-1-1c0-0.3,0.1-0.5,0.3-0.7l5-5.1l-5-5.1c-0.4-0.4-0.4-1,0-1.4c0.4-0.4,1-0.4,1.4,0
	l5.7,5.8c0.4,0.4,0.4,1,0,1.4l-5.7,5.8C193.4,55.3,193.1,55.4,192.8,55.4z"/>
<path class="st1" d="M579.4,41h-10.6c-1.2,0-2.2,1-2.2,2.2c0,0,0,0,0,0v10.6c0,1.2,1,2.2,2.2,2.2c0,0,0,0,0,0h10.6
	c1.2,0,2.2-1,2.2-2.2V43.1C581.5,41.9,580.6,41,579.4,41z"/>
<path class="st1" d="M553.4,41h-10.6c-1.2,0-2.2,1-2.2,2.2c0,0,0,0,0,0v10.6c0,1.2,1,2.2,2.2,2.2c0,0,0,0,0,0h10.6
	c1.2,0,2.2-1,2.2-2.2V43.1C555.5,41.9,554.6,41,553.4,41z"/>
<path class="st1" d="M603.9,41.5h-10.6c-1.2,0-2.2,1-2.2,2.2c0,0,0,0,0,0v10.6c0,1.2,1,2.2,2.2,2.2c0,0,0,0,0,0h10.6
	c1.2,0,2.2-1,2.2-2.2V43.6C606,42.4,605.1,41.5,603.9,41.5z"/>
<path class="st1" d="M388.9,45.5h-84.8c-1.5,0-2.7,1.2-2.7,2.7c0,1.5,1.2,2.7,2.7,2.7c0,0,0,0,0,0h84.8c1.5,0,2.7-1.2,2.7-2.7
	C391.6,46.7,390.4,45.5,388.9,45.5z"/>
<path id="floating-cloud" class="st2" d="M164.6,410.4l-50.7-1.6c-7-0.2-14.9-0.2-20,3.4c-5.7,4.1-4.8,11.4-0.1,16.2
	s12.3,7.4,19.7,9.7c39.4,11.7,82.9,14.1,125.2,11.4s83.7-10.1,125-17.6c3.9-0.7,8.3-1.7,9.9-4.4c1.5-2.6-0.5-5.8-3.6-7.5
	s-7.1-2.3-10.9-2.8c-69.4-9.1-139.6-11.1-209.5-6"/>
<path class="st3" d="M255.7,371.4v-12c-8.7,0.1-39.9-0.1-48,0c-0.6,41.9-4.3,33.7,30,33.9c3.3,0,5.9,2.7,6,6v0.2c0,3.3-2.7,6-6,6
	h-30v12h48c0.1,0,0-11.6,0-12c2-34.8-2-22.3-31.2-23.7c-2.7-0.1-4.8-2.4-4.8-5.1v-0.1c0-2.8,2.3-5.1,5.1-5.1L255.7,371.4z"/>
<path class="st3" d="M314.7,371.4v-12c-8.7,0.1-39.9-0.1-48,0c-0.6,42.3-4.4,33.6,31,33.9c2.8,0,5,2.3,5,5.1c0,0.6,0,1.3,0,1.9
	c0,2.8-2.3,5.1-5.1,5.1c0,0,0,0,0,0h-30.9v12h48c0.1,0,0-11.6,0-12c2-34.8-2-22.3-31.2-23.7c-2.7-0.1-4.8-2.4-4.8-5.1v-0.1
	c0-2.8,2.3-5.1,5.1-5.1H314.7z"/>
<path class="st3" d="M193.7,371.4v-12h-48c0,10.7,0,39,0,50c-9.4,15.9,44,4.9,48,8c0,0,0-12,0-12c-36.5-0.2-37.4,6.6-36.3-26.4
	c0.1-4.2,3.6-7.6,7.8-7.6C175.9,371.4,193.7,371.4,193.7,371.4z"/>
<path class="st1" d="M127.2,262.4H78.4c-5,0-9,4-9,9s4,9,9,9h48.8c5,0,9-4,9-9S132.2,262.4,127.2,262.4L127.2,262.4z"/>
<polygon class="st4" points="569.4,517.6 559.5,517.6 554.8,479.4 569.4,479.4 "/>
<path class="st5" d="M569.7,527.9l-30.4,0v-0.4c0-6.5,5.3-11.9,11.9-11.9h0l5.6-4.2l10.4,4.2l2.7,0L569.7,527.9z"/>
<polygon class="st4" points="604.4,517.6 594.5,517.6 589.8,479.4 604.4,479.4 "/>
<path class="st5" d="M604.7,527.9l-30.4,0v-0.4c0-6.5,5.3-11.9,11.9-11.9h0l5.6-4.2l10.4,4.2l2.7,0L604.7,527.9z"/>
<path class="st5" d="M544.7,309.5c0,0-9.5,29.3-7.8,33.1s4.8,0.9,1.8,3.9s-5.6-0.2-2.8,4.9s7.1,47,8.9,49.1s4.4,2.1,2.2,4.1
	s-5.3-2-2.3,2s11,96.3,11,96.3h15.6c0,0,3.9-4.5,1.7-7.4s0.2-4,0-6s0.5-6.1,0.7-8s2.8-47.4-3.6-73.6l11.5-50l5.8,60.4
	c0,0-6.4,50.7,0,67c0,0-5.2,4.3-2.9,6.8s4.3,0.5,2.3,2.5s3,9,3,9l17-1l9.6-94.7c0,0,1.6-9.9,0-11.6s-1.6,4.3-1.6-1.7v-8
	c0,0,7.3-49.2,7.1-52.1s-12.1-23.9-12.1-23.9L544.7,309.5z"/>
<path class="st1" d="M595,191.1l-24.8-1.7l-7.4,11.7l-17.9,7.3v57.7c1.9,5.6,2.8,11.4,2.9,17.3c-0.1,11.5-3,25-2,28c10,29,65,0,65,0
	l-1-31l1.4-70.1l-11.2-9L595,191.1z"/>
<path class="st4" d="M543.7,322l-1.7-18.2l-10.6-0.5l2.5,19.2c-1.9,2.8-1.2,6.6,1.6,8.5s6.6,1.2,8.5-1.6
	C545.7,327.1,545.5,324.1,543.7,322L543.7,322z"/>
<path class="st1" d="M548.9,206.9l-0.3,0c-5.5,0.9-10.2,4.5-12.6,9.6c-3,6.5-12.8,49.5-8.5,56c3.3,5,2.5,4,1,7.8s-4.1-0.3-2,5.8
	s4.3,5.2,2.4,7.5s-3.9,1.9-2,5.8s1.6,5.2,1.9,6.7s0,11.8,0,11.8s11.3-0.9,16.9,1.8c0,0-3.1-10.4-1.4-12.1s3.9-1.9,2.4-4.3
	s-5-2.5-1.2-3.7s2.5-23,2.5-23C554.2,260.5,551.8,233.9,548.9,206.9z"/>
<path class="st4" d="M616.9,323.3l0.8-18.3l10.5-1l-1.5,19.3c2,2.7,1.5,6.6-1.2,8.6c-2.7,2-6.6,1.5-8.6-1.2
	C615.3,328.5,615.3,325.5,616.9,323.3z"/>
<path class="st1" d="M605.9,208.6l0.3,0c5.6,0.7,10.5,4,13.1,9c3.3,6.4,13.9,49.6,11.4,55.5c-2.4,5.5-2.3,4.2-0.6,7.9
	s4.1-0.5,2.3,5.7s-4.1,5.4-2,7.6s4,1.7,2.3,5.7s-1.3,5.3-1.6,6.8s0.5,11.8,0.5,11.8s-11.3-0.3-16.8,2.7c0,0,2.6-10.6,0.7-12.1
	s-4-1.7-2.6-4.2s4.8-2.8,1-3.8s-3.7-22.8-3.7-22.8L605.9,208.6z"/>
<circle class="st4" cx="583.2" cy="166.4" r="19.4"/>
<path class="st5" d="M596.7,183c2.7-2.1,3-6.1,5.3-8.7c3.8-4.2,5.6-8.8,3.6-13.8c-1.8-4.4-1.4-9.9-5.2-12.7c1.9-0.7,2.3-2.1,0.7-2.1
	c-1.1,0-5.3,2.1-3.3-0.5s-1.8-1.6-1.5-2.7s1.9-1.7,2.6-0.8c-2.2-2.2-5.7-2.3-8-0.1c-0.3,0.3-0.6,0.7-0.9,1.1
	c-2.3-3.4-4.7-5.7-8.1-3.6c-3.4,2.1-3.4,4.7-7,4.1c-1.7-0.3-1.9,3-3.1,4.2c-1.1,1.4-2.8,2.1-4.6,2c-1.7-0.3-3-2.5-2.1-3.9l-4,9.2
	l-1.6-2c-2.6,1.7-1.7,6.1,0.9,7.8s6,1.3,9,0.6c3.6-0.9,7.3-1.2,11.1-0.9c5.7,0.8,9.6,7.6,7.5,12.9c2.2-2.1,6.2-0.4,7.3,2.5
	s0.3,6-0.5,9"/>
</svg>
